<?xml version="1.0" standalone="no"?>
<!DOCTYPE svg PUBLIC "-//W3C//DTD SVG 20010904//EN"
 "http://www.w3.org/TR/2001/REC-SVG-20010904/DTD/svg10.dtd">
<svg version="1.0" xmlns="http://www.w3.org/2000/svg"
 width="1212.000000pt" height="1212.000000pt" viewBox="0 0 1212.000000 1212.000000"
 preserveAspectRatio="xMidYMid meet">
<metadata>
Created by potrace 1.11, written by Peter Selinger 2001-2013
</metadata>
<g transform="translate(0.000000,1212.000000) scale(0.100000,-0.100000)"
fill="#000000" stroke="none">
<path d="M7158 8283 c7 -3 16 -2 19 1 4 3 -2 6 -13 5 -11 0 -14 -3 -6 -6z"/>
<path d="M6950 8254 l-55 -13 55 6 c30 3 57 7 59 9 11 10 -9 9 -59 -2z"/>
<path d="M6839 8236 c-2 -2 -27 -6 -56 -10 -28 -3 -82 -12 -120 -20 -37 -8
-86 -17 -108 -20 -37 -6 -184 -33 -230 -42 -11 -3 -36 -7 -55 -10 -19 -3 -43
-7 -52 -10 -18 -5 -36 -9 -118 -24 -30 -6 -65 -12 -77 -15 -54 -12 -73 -16
-168 -35 -55 -11 -109 -22 -120 -24 -11 -2 -49 -11 -85 -20 -36 -8 -96 -22
-135 -30 -38 -9 -200 -48 -360 -87 -348 -85 -296 -71 -435 -109 -63 -18 -122
-33 -130 -35 -27 -6 -304 -85 -330 -94 -14 -5 -52 -17 -85 -26 -33 -9 -80 -24
-105 -32 -25 -8 -52 -16 -60 -18 -24 -5 -593 -194 -615 -205 -11 -5 -58 -23
-105 -39 -114 -40 -188 -68 -360 -136 -152 -60 -163 -64 -273 -114 -38 -17
-70 -31 -72 -31 -7 0 -164 -74 -290 -137 -468 -233 -757 -451 -856 -643 -22
-43 -25 -52 -32 -85 -2 -8 -5 -17 -8 -20 -10 -9 8 -122 26 -158 10 -21 39 -60
64 -87 26 -28 45 -53 42 -55 -2 -3 3 -5 13 -5 9 0 15 -4 11 -9 -3 -5 4 -12 15
-16 11 -3 20 -11 20 -17 0 -6 3 -8 7 -5 3 4 13 -2 20 -13 8 -11 18 -18 23 -15
5 3 15 -3 22 -15 7 -11 20 -20 30 -20 9 0 20 -5 23 -10 4 -6 10 -8 15 -5 4 3
13 -2 20 -10 7 -8 16 -12 21 -9 5 3 9 0 9 -7 0 -7 3 -9 7 -6 3 4 12 2 20 -4 7
-6 13 -8 13 -3 0 5 4 3 8 -3 4 -7 17 -14 27 -16 11 -2 29 -8 40 -14 11 -5 34
-14 50 -18 17 -5 36 -10 42 -12 7 -1 19 -4 25 -6 7 -1 19 -6 26 -10 6 -5 17
-5 22 -2 5 3 10 2 10 -3 0 -5 6 -9 13 -9 19 -1 80 -13 87 -18 4 -2 20 -7 36
-9 16 -3 40 -9 54 -12 14 -3 35 -6 48 -7 12 -1 22 -3 22 -6 0 -4 10 -7 23 -7
12 -1 33 -4 47 -7 14 -3 45 -8 70 -11 25 -3 54 -8 65 -10 11 -2 43 -7 70 -10
28 -4 64 -9 80 -12 17 -2 50 -6 75 -8 25 -3 63 -7 85 -10 22 -3 76 -8 120 -11
44 -4 103 -8 130 -10 114 -9 234 -17 300 -20 358 -14 506 -17 800 -17 370 0
677 8 975 26 207 13 247 15 310 21 36 3 97 8 135 11 39 3 86 7 105 9 19 1 69
6 110 9 41 3 91 8 110 11 19 2 62 7 95 10 33 3 74 7 90 9 17 2 59 7 95 11 36
4 72 8 80 10 8 2 44 6 80 10 36 4 73 9 82 10 9 2 45 6 80 10 35 3 70 8 78 10
8 3 34 7 58 10 80 10 117 15 138 19 36 7 128 19 152 20 12 1 22 3 22 7 0 3 10
5 23 6 12 0 38 3 57 6 55 10 98 17 128 21 15 2 43 7 62 11 19 3 46 8 60 10 14
2 36 6 50 9 13 3 40 8 60 11 20 3 47 8 60 10 14 3 40 8 59 11 18 3 43 8 55 11
11 2 30 6 41 8 56 9 92 16 106 21 10 2 30 7 45 9 16 2 40 7 54 10 14 3 39 8
55 10 17 3 38 8 47 11 9 3 27 7 40 9 13 3 48 10 78 16 30 6 62 13 70 14 8 2
17 4 20 5 3 1 8 2 12 1 4 0 24 5 45 13 21 7 46 12 56 10 9 -1 17 2 17 6 0 5 8
9 18 9 21 0 67 8 67 11 0 1 11 4 25 5 27 4 63 12 68 15 1 2 5 3 10 4 31 8 71
17 90 21 43 10 58 13 102 25 52 14 90 22 108 23 6 0 12 3 12 7 0 5 22 10 63
13 9 1 17 4 17 7 0 7 10 9 55 12 14 1 25 6 25 11 0 4 4 6 9 2 5 -3 12 -1 16 5
4 6 11 8 16 5 5 -4 15 -3 22 2 6 4 19 8 27 9 8 0 22 3 30 7 14 6 89 26 120 32
8 2 26 8 40 13 14 5 28 10 33 11 4 0 8 1 10 2 8 2 36 9 62 14 16 3 34 10 41
16 6 5 13 7 16 4 3 -3 21 1 40 10 20 8 51 17 69 20 18 3 39 11 46 17 7 6 13 8
13 4 0 -3 16 0 35 8 19 8 35 13 35 10 0 -2 16 2 35 10 20 9 38 15 40 16 3 0 6
0 8 1 12 4 44 10 55 11 6 1 12 5 12 10 0 4 3 7 8 7 4 -1 10 0 15 1 4 1 12 4
17 5 6 1 12 4 15 5 7 4 15 5 58 14 20 5 37 13 37 18 0 5 6 8 13 5 6 -2 24 2
40 10 15 7 27 12 27 9 0 -2 30 7 68 21 37 14 73 25 80 26 6 0 12 3 12 7 0 4 6
7 13 8 12 1 47 9 57 12 3 1 8 2 13 1 4 0 7 4 7 9 0 5 3 9 8 8 4 -1 23 4 42 11
19 8 41 13 48 12 6 -1 12 3 12 9 0 5 3 9 8 8 10 -2 65 13 77 22 6 4 42 18 80
31 39 13 73 28 77 34 4 5 8 6 8 2 0 -4 10 -2 23 5 12 6 31 13 42 15 10 2 23 9
27 16 4 6 8 8 8 3 0 -6 5 -5 11 1 6 6 18 9 25 6 8 -3 14 -1 14 5 0 5 9 12 20
15 11 3 22 6 25 7 2 0 33 14 67 29 68 30 97 41 101 39 1 -1 21 11 45 25 23 15
42 24 42 21 0 -4 7 0 17 7 13 11 105 14 492 16 262 0 479 2 484 2 4 1 7 232 7
515 0 528 0 526 -36 503 -17 -10 -22 0 -18 43 3 38 3 38 -24 30 -15 -5 -52
-16 -82 -26 -30 -9 -113 -34 -185 -56 -188 -57 -458 -139 -475 -143 -8 -2 -89
-27 -180 -56 -91 -28 -169 -52 -175 -53 -5 -1 -55 -16 -110 -34 -153 -48 -694
-213 -745 -227 -25 -7 -90 -27 -146 -44 -55 -17 -109 -34 -120 -36 -10 -3
-107 -32 -214 -66 -107 -33 -206 -63 -219 -65 -14 -3 -28 -7 -32 -10 -4 -2
-83 -27 -176 -55 -92 -28 -197 -60 -233 -70 -36 -11 -72 -22 -80 -24 -8 -3
-58 -18 -110 -34 -104 -33 -101 -34 53 -32 65 1 85 -9 50 -25 -10 -4 -22 -6
-27 -5 -4 1 -14 -4 -22 -10 -8 -6 -14 -8 -14 -4 0 4 -6 2 -13 -4 -8 -6 -17 -8
-20 -4 -4 3 -7 2 -7 -3 0 -5 173 -9 424 -8 234 0 423 -3 420 -8 -3 -5 -22 -15
-42 -24 -58 -24 -504 -195 -532 -204 -14 -4 -77 -27 -140 -49 -118 -43 -510
-173 -635 -211 -109 -33 -305 -91 -360 -105 -27 -8 -108 -30 -180 -50 -71 -19
-142 -38 -157 -40 -15 -3 -40 -10 -55 -16 -15 -6 -29 -10 -31 -9 -2 1 -149
-33 -242 -56 -23 -6 -282 -62 -310 -68 -14 -2 -47 -9 -75 -15 -27 -6 -61 -13
-75 -15 -14 -3 -34 -7 -45 -9 -11 -3 -40 -8 -65 -12 -25 -4 -54 -9 -65 -12
-36 -7 -179 -33 -215 -39 -19 -3 -89 -14 -155 -25 -122 -20 -138 -22 -235 -34
-30 -3 -62 -8 -70 -10 -8 -2 -40 -7 -70 -10 -30 -3 -82 -10 -115 -15 -33 -5
-89 -12 -125 -15 -83 -8 -136 -14 -180 -20 -19 -3 -64 -7 -100 -10 -36 -2 -96
-7 -135 -10 -38 -4 -90 -8 -115 -10 -25 -2 -90 -7 -145 -10 -55 -4 -127 -8
-160 -10 -415 -27 -1205 -26 -1430 1 -16 1 -61 6 -100 9 -38 3 -77 8 -85 10
-8 2 -40 7 -70 10 -30 4 -85 13 -122 21 -37 7 -82 16 -100 19 -49 8 -204 51
-272 75 -159 57 -296 140 -336 205 -17 28 -22 51 -22 103 0 57 4 89 12 112 1
3 2 8 1 13 0 4 4 7 9 7 5 0 9 3 8 8 -4 11 44 92 54 92 5 0 6 5 3 10 -3 6 1 13
9 16 9 3 16 10 16 15 0 5 29 38 65 73 36 35 65 62 65 59 0 -4 19 10 63 51 18
15 52 42 77 59 25 17 47 35 48 39 2 4 8 6 13 2 5 -3 9 -1 9 4 0 6 14 15 30 21
17 5 30 15 30 20 0 6 7 11 15 11 8 0 15 5 15 11 0 5 4 8 9 5 4 -3 16 3 26 14
10 11 22 17 26 14 5 -3 9 -1 9 4 0 6 13 14 28 20 16 5 36 17 45 27 9 9 17 14
17 10 0 -3 13 3 29 14 15 11 31 18 34 14 4 -3 9 2 13 11 3 9 10 14 14 11 5 -3
15 1 22 8 8 8 30 20 51 28 20 7 37 17 37 21 0 4 3 7 8 6 10 -2 146 63 153 74
3 5 10 8 15 7 5 -2 29 8 54 21 25 13 47 24 50 25 3 0 11 4 18 8 6 5 12 5 12 2
0 -4 12 3 26 14 14 11 31 18 38 15 7 -3 19 2 26 10 7 9 16 14 20 11 4 -3 13 2
20 10 6 7 18 11 26 8 8 -3 14 0 14 6 0 6 6 11 13 11 6 0 31 9 55 20 23 10 45
19 47 19 3 1 19 8 35 16 17 9 30 12 30 9 0 -4 9 1 21 12 12 10 23 18 25 17 5
-3 29 5 97 35 32 14 65 25 73 25 8 0 14 5 14 10 0 6 3 7 7 4 3 -4 13 -1 21 5
7 7 23 14 35 15 12 2 25 9 29 16 4 6 8 8 8 4 0 -4 10 -2 23 5 12 6 31 13 41
15 11 2 25 8 33 14 7 6 13 9 13 5 0 -3 22 5 50 19 27 14 53 26 57 26 9 1 48
16 73 26 8 3 18 7 23 8 4 2 9 4 12 5 3 1 10 4 15 5 6 1 13 4 18 5 4 1 10 2 15
1 4 0 7 3 7 7 0 4 10 8 22 9 11 1 24 7 28 13 4 7 10 11 14 11 3 -1 7 -1 9 0 1
0 13 3 27 5 13 2 27 9 31 16 4 6 12 7 18 4 6 -4 11 -2 11 3 0 6 3 10 8 10 4
-1 9 0 12 1 3 1 12 3 20 5 35 7 45 10 50 15 5 6 124 48 153 55 9 2 23 7 30 12
6 4 17 8 22 8 6 1 24 7 40 14 17 7 35 14 40 15 41 11 72 20 80 25 11 6 32 12
53 13 6 1 12 6 12 11 0 6 3 7 7 4 3 -4 12 -2 20 4 7 6 13 8 13 5 0 -4 9 -2 21
4 20 11 53 21 77 22 6 1 12 5 12 10 0 4 3 7 8 7 4 -1 9 -1 12 1 3 1 16 3 29 6
14 2 31 10 40 17 12 10 13 9 6 -3 -8 -13 -7 -13 9 0 10 8 25 15 34 16 8 2 53
15 99 29 45 15 91 28 100 30 10 2 19 4 21 5 2 3 2 3 47 15 17 4 36 12 43 18 6
5 12 7 12 4 0 -2 30 4 68 15 37 10 78 21 91 24 14 3 28 7 33 10 8 5 42 13 78
19 8 1 22 5 30 8 18 7 126 36 160 43 14 2 48 11 76 19 28 8 62 17 75 19 13 3
25 5 27 7 3 2 9 4 62 14 52 10 59 12 63 14 1 2 13 4 27 7 96 16 350 73 329 73
-14 1 -28 -1 -30 -3z"/>
<path d="M250 4773 c-39 -19 -68 -38 -65 -44 4 -5 -1 -9 -10 -9 -9 0 -13 -4
-10 -10 3 -5 2 -10 -4 -10 -9 0 -27 -32 -46 -85 -12 -32 -14 -155 -2 -155 6 0
8 -3 4 -6 -13 -13 66 -134 88 -134 4 0 21 -10 38 -22 18 -13 33 -22 34 -21 4
4 30 -5 106 -36 16 -6 33 -9 38 -6 5 4 9 2 9 -2 0 -5 24 -17 53 -27 78 -27
114 -59 130 -113 18 -61 6 -111 -40 -161 -19 -20 -37 -36 -41 -36 -4 1 -18 -2
-30 -7 -31 -12 -108 -14 -152 -4 -19 4 -40 8 -47 8 -7 0 -10 4 -7 9 3 4 -1 8
-9 8 -19 0 -72 54 -91 93 -8 18 -18 52 -22 74 -6 41 -6 41 -46 37 -22 -2 -44
-7 -49 -10 -9 -5 -3 -79 7 -96 3 -4 7 -16 9 -25 11 -55 96 -170 116 -157 5 3
9 1 9 -5 0 -12 31 -30 63 -38 97 -22 153 -25 227 -10 32 7 110 46 110 56 0 6
3 10 8 8 4 -1 7 1 7 5 0 4 10 14 21 23 62 43 91 211 49 285 -53 92 -113 132
-287 194 -71 24 -128 42 -128 38 0 -3 -7 3 -15 14 -8 10 -15 15 -15 9 0 -5
-12 7 -26 28 -27 40 -34 110 -16 157 19 50 66 85 125 94 9 1 19 4 22 7 4 5 88
-3 124 -12 23 -6 72 -51 87 -80 7 -15 16 -42 19 -60 3 -18 7 -34 8 -35 1 -1
23 0 49 3 47 6 48 6 42 37 -9 54 -27 106 -36 106 -5 0 -6 5 -3 10 8 14 -90
114 -104 106 -5 -4 -13 0 -18 8 -4 8 -11 15 -15 15 -5 1 -9 1 -10 2 -22 6 -56
10 -115 13 -66 3 -79 0 -143 -31z"/>
<path d="M1958 4799 c-16 -4 -28 -5 -28 -2 0 3 -7 0 -15 -7 -8 -7 -15 -10 -15
-6 0 9 -90 -43 -121 -71 -16 -14 -31 -34 -35 -45 -3 -10 -9 -16 -13 -13 -8 4
-49 -76 -43 -84 2 -2 -1 -7 -7 -11 -6 -3 -13 -15 -15 -26 -2 -10 -9 -31 -14
-45 -25 -63 -35 -257 -20 -349 20 -120 97 -250 182 -306 22 -15 46 -27 53 -27
7 0 13 -4 13 -8 0 -6 45 -20 67 -21 5 0 13 -3 18 -8 12 -9 138 -6 180 5 17 4
36 12 43 18 6 5 12 7 12 3 0 -3 18 4 40 15 22 12 40 25 40 31 0 5 4 7 9 4 5
-3 29 12 54 35 l46 40 -2 187 -2 187 -177 1 -176 1 -1 -57 0 -58 127 2 127 1
-1 -99 -1 -100 -44 -37 c-24 -21 -46 -37 -49 -36 -3 1 -21 -5 -40 -12 -49 -19
-59 -21 -105 -22 -49 -1 -102 8 -126 22 -11 5 -19 7 -19 4 0 -2 -12 5 -26 18
-60 51 -90 85 -86 96 2 6 -1 11 -6 11 -10 0 -44 107 -49 155 -11 127 2 256 33
318 8 15 12 27 8 27 -7 0 57 84 68 88 5 2 5 9 2 14 -4 6 -2 8 4 4 6 -3 13 -2
17 4 28 45 221 64 281 28 19 -11 34 -18 34 -15 0 6 58 -51 60 -58 1 -2 10 -26
20 -52 18 -47 20 -48 57 -46 21 2 40 8 41 13 2 6 7 8 12 5 16 -10 -2 48 -37
123 -36 75 -123 142 -204 158 -50 10 -140 12 -171 3z"/>
<path d="M4778 4804 c-2 -1 -15 -4 -28 -6 -30 -5 -88 -32 -115 -56 -26 -22
-65 -77 -70 -99 -3 -10 -9 -38 -15 -63 -20 -80 9 -179 67 -237 25 -24 135 -81
170 -87 12 -3 31 -10 43 -16 11 -6 25 -8 30 -5 6 3 10 2 10 -3 0 -6 11 -13 24
-16 13 -3 47 -16 74 -28 80 -35 114 -122 81 -203 -7 -16 -12 -33 -11 -37 1 -5
-5 -8 -13 -8 -8 0 -15 -5 -15 -11 0 -9 -57 -39 -90 -46 -21 -4 -111 -4 -135 0
-41 7 -153 87 -149 106 1 3 -2 16 -7 29 -5 13 -12 40 -15 62 -5 28 -10 37 -23
35 -9 -2 -30 -4 -47 -4 -30 -1 -32 -3 -29 -33 4 -51 13 -92 29 -130 16 -37 95
-132 104 -123 3 2 10 -2 16 -10 21 -28 111 -52 188 -49 40 1 86 5 102 8 42 10
103 43 115 63 6 10 11 14 11 9 0 -12 40 40 40 52 0 6 5 12 10 14 28 9 48 199
23 217 -4 3 -9 13 -11 21 -6 24 -73 101 -83 95 -5 -4 -9 -2 -9 4 0 18 -83 58
-200 97 -63 21 -122 44 -131 51 -9 7 -18 11 -21 8 -9 -9 -54 90 -51 115 6 71
13 87 46 121 42 41 36 39 147 44 l85 3 49 -39 c27 -22 45 -39 41 -39 -4 0 -2
-7 5 -15 7 -8 9 -15 5 -15 -4 0 -2 -6 4 -13 6 -8 8 -16 5 -20 -3 -3 -1 -14 5
-24 7 -14 19 -19 43 -17 18 1 38 3 45 3 10 1 10 12 0 71 -6 35 -29 90 -38 90
-6 0 -8 4 -5 9 8 12 -96 102 -111 97 -6 -3 -13 -1 -15 5 -4 13 -169 34 -180
23z"/>
<path d="M6349 4795 c-71 -22 -133 -61 -170 -107 -45 -54 -69 -95 -62 -102 4
-3 2 -6 -4 -6 -10 0 -38 -87 -51 -155 -7 -39 -7 -219 0 -270 7 -47 27 -126 36
-140 4 -5 7 -12 8 -15 11 -38 18 -50 27 -50 6 0 7 -3 4 -6 -7 -7 23 -53 58
-91 27 -29 135 -85 152 -79 7 3 13 2 13 -3 0 -12 142 -6 183 9 20 8 37 18 37
22 0 4 4 7 9 5 14 -3 101 72 101 88 0 8 4 15 9 15 9 0 54 97 54 118 0 6 5 12
10 12 6 0 8 3 4 6 -3 3 -2 16 3 28 7 21 4 24 -40 38 l-48 16 -6 -33 c-4 -17
-16 -52 -28 -76 -12 -24 -21 -48 -19 -54 1 -5 0 -7 -4 -3 -3 3 -19 -6 -35 -20
-44 -41 -60 -53 -60 -47 0 3 -10 1 -21 -6 -18 -9 -60 -11 -146 -6 -12 0 -20 4
-17 8 2 4 -9 10 -26 14 -16 4 -30 11 -30 17 0 6 -3 8 -7 5 -3 -4 -18 11 -33
33 -15 22 -30 38 -33 35 -4 -3 -5 -2 -2 1 2 4 -4 23 -14 43 -45 90 -57 271
-27 417 7 36 47 123 62 135 8 6 11 15 8 20 -3 5 -2 8 3 7 4 -2 9 1 10 6 2 10
45 33 97 52 48 17 143 21 159 5 6 -6 19 -11 29 -11 10 0 18 -4 18 -10 0 -5 7
-10 15 -10 8 0 15 -7 15 -15 0 -8 4 -15 9 -15 13 0 72 -116 63 -125 -4 -4 13
-4 38 -1 25 3 47 11 48 16 2 6 8 8 13 4 13 -8 11 10 -3 24 -7 7 -9 12 -5 12 4
0 2 10 -5 23 -6 12 -13 27 -14 33 -3 21 -55 95 -69 101 -8 3 -15 10 -15 17 0
9 -53 48 -70 50 -3 1 -9 4 -15 7 -40 24 -158 31 -216 14z"/>
<path d="M1102 4782 c1 -4 -4 -19 -10 -35 -7 -15 -14 -38 -16 -50 -2 -12 -11
-41 -20 -65 -8 -23 -15 -45 -15 -47 0 -3 -15 -56 -35 -118 -19 -61 -46 -152
-61 -202 -15 -49 -29 -97 -33 -105 -3 -8 -6 -19 -7 -25 -1 -5 -10 -37 -20 -70
-11 -33 -20 -62 -20 -65 -1 -3 -4 -12 -8 -20 -3 -8 -19 -59 -35 -112 l-29 -97
54 1 c58 2 65 9 77 71 2 12 16 63 31 112 15 50 27 96 28 103 0 14 -11 13 190
15 96 1 162 -2 166 -8 8 -10 29 -79 57 -185 28 -106 29 -107 85 -107 57 -1 57
0 28 83 -11 32 -23 70 -25 83 -3 14 -8 29 -12 35 -3 6 -7 16 -7 21 -1 6 -4 17
-7 25 -7 16 -89 278 -93 295 -1 6 -5 17 -8 25 -3 8 -11 33 -17 55 -6 22 -14
47 -17 55 -3 8 -8 24 -10 35 -2 10 -7 22 -11 25 -4 3 -8 14 -10 25 -3 19 -37
134 -49 165 -4 8 -7 17 -8 20 -1 3 -6 19 -10 37 -7 31 -8 31 -66 32 -32 0 -58
-3 -57 -7z m103 -238 c20 -65 37 -129 39 -141 2 -13 8 -29 15 -36 6 -8 9 -16
6 -19 -3 -2 6 -38 20 -78 13 -41 22 -76 21 -77 -3 -3 -201 -5 -263 -4 -21 1
-21 2 14 114 20 61 36 118 36 125 0 6 4 12 9 12 4 0 7 3 6 8 -1 4 7 43 19 87
12 44 24 93 28 109 3 15 8 26 10 24 2 -2 20 -58 40 -124z"/>
<path d="M2582 4280 l-1 -508 53 0 53 1 0 507 0 507 -52 1 -51 0 -2 -508z"/>
<path d="M2823 4730 l-2 -57 137 1 137 1 -2 -452 -2 -452 53 0 52 1 0 445 c-1
373 1 446 13 451 8 3 68 6 135 6 l121 1 1 56 1 56 -321 1 -321 0 -2 -58z"/>
<path d="M3691 4681 c-18 -58 -39 -126 -46 -151 -8 -25 -23 -74 -33 -110 -11
-36 -37 -119 -57 -185 -20 -66 -43 -140 -50 -165 -8 -25 -29 -96 -48 -157 -19
-62 -33 -113 -30 -113 3 0 0 -6 -6 -14 -9 -11 0 -13 50 -14 33 0 58 2 56 4 -3
3 4 33 15 67 11 34 21 69 23 77 2 8 8 27 14 43 6 15 9 27 6 27 -2 0 2 18 10
39 7 22 12 41 10 43 -2 1 77 3 176 3 l179 0 10 -31 c12 -36 21 -73 22 -91 1
-7 4 -13 8 -13 3 0 7 -8 8 -17 4 -35 8 -53 15 -59 4 -4 7 -17 7 -29 0 -12 3
-25 8 -29 4 -4 7 -13 7 -19 0 -7 21 -13 54 -15 l54 -3 -7 28 c-4 15 -7 34 -8
41 -1 6 -5 12 -10 12 -5 0 -6 5 -3 10 3 6 3 16 -2 23 -4 6 -8 17 -9 22 -2 14
-63 203 -77 240 -7 17 -12 32 -12 35 0 12 -80 266 -85 270 -3 3 -7 14 -8 25
-2 11 -13 47 -24 80 -22 66 -22 66 -33 113 -4 17 -12 32 -17 32 -5 0 -7 4 -4
8 3 5 -1 24 -7 44 -12 34 -13 35 -68 35 l-56 1 -32 -107z m104 -38 c2 -10 4
-20 6 -23 1 -3 3 -9 4 -15 1 -5 5 -17 8 -25 3 -8 13 -42 22 -75 9 -33 19 -67
22 -75 3 -8 7 -19 8 -25 5 -21 46 -161 52 -175 15 -38 12 -40 -50 -41 -110 -1
-220 1 -223 4 -2 2 5 27 16 57 11 29 17 57 14 61 -3 5 0 9 6 9 7 0 10 6 7 14
-3 7 -2 17 3 22 7 8 31 75 36 99 1 6 8 30 15 55 15 54 13 47 23 90 16 75 23
85 31 43z"/>
<path d="M5313 4280 l0 -507 306 -1 307 0 1 58 0 57 -256 -1 -256 -1 0 180 0
180 237 -1 237 -1 -1 57 -2 57 -228 0 c-126 0 -231 3 -235 7 -3 3 -7 75 -7
159 l-1 152 250 0 250 0 0 55 0 55 -301 1 -301 1 0 -507z"/>
<path d="M6926 4431 c1 -196 5 -369 7 -386 14 -75 19 -93 39 -133 21 -42 106
-128 116 -117 3 3 10 0 17 -5 6 -5 20 -11 31 -13 10 -1 24 -5 29 -9 19 -11
160 0 203 16 106 39 171 131 189 266 3 19 6 193 8 386 l3 351 -52 1 -53 0 -1
-312 c-1 -338 -4 -415 -22 -461 -6 -16 -11 -32 -11 -35 1 -3 -8 -17 -19 -32
-44 -60 -151 -88 -232 -61 -21 7 -38 9 -38 5 0 -3 -20 15 -44 40 -65 69 -65
70 -67 520 l-1 337 -53 0 -52 -1 3 -357z"/>
<path d="M7756 4781 c-2 -3 -3 -232 -3 -508 l0 -502 52 0 52 0 -1 227 -1 227
85 -1 c98 -2 145 -11 161 -30 6 -8 18 -14 25 -14 8 0 13 -3 12 -7 -2 -5 9 -24
23 -43 14 -19 37 -55 50 -80 13 -25 27 -47 30 -50 4 -3 9 -15 13 -27 4 -13 12
-23 17 -23 6 0 8 -4 5 -8 -3 -5 3 -18 14 -29 10 -12 17 -22 15 -24 -2 -2 11
-29 29 -59 l32 -55 65 -2 c35 -1 59 1 54 5 -6 4 -24 34 -40 67 -16 33 -39 74
-50 90 -11 17 -20 32 -20 35 0 15 -67 129 -89 153 -14 15 -22 27 -18 27 3 0
-11 18 -33 40 -21 22 -37 41 -34 43 15 13 68 34 62 24 -8 -13 55 29 78 53 29
29 50 69 63 117 14 51 13 163 0 185 -5 7 -9 19 -11 27 -1 8 -5 17 -10 20 -4 3
-9 13 -11 21 -7 32 -88 90 -135 97 -53 7 -477 11 -481 4z m471 -132 c26 -13
52 -33 57 -44 6 -11 13 -22 16 -25 3 -3 7 -23 9 -45 1 -22 4 -42 6 -43 7 -7
-37 -97 -51 -105 -8 -5 -11 -14 -8 -20 4 -7 4 -9 -1 -5 -4 4 -16 3 -27 -3 -33
-18 -66 -21 -223 -22 l-150 -2 1 163 c0 106 4 166 11 170 6 4 79 6 162 6 137
-2 155 -4 198 -25z"/>
<path d="M8612 4280 l0 -507 52 -1 53 0 0 507 0 507 -53 1 -52 0 0 -507z"/>
<path d="M8851 4730 l-1 -57 131 1 c77 1 134 -3 138 -9 3 -5 6 -208 5 -450 l0
-441 52 -1 52 0 1 361 c0 198 1 402 1 451 l0 90 134 -2 133 -1 2 58 1 58 -324
0 -323 -1 -2 -57z"/>
<path d="M9540 4779 c0 -5 5 -9 11 -9 5 0 8 -4 4 -9 -3 -5 -1 -12 5 -16 6 -4
8 -10 6 -14 -3 -4 4 -18 15 -29 11 -12 17 -22 14 -22 -4 0 2 -12 12 -27 10
-16 32 -54 47 -85 16 -32 32 -58 37 -58 5 0 8 -4 7 -8 -4 -10 34 -86 45 -90 4
-2 7 -10 7 -18 0 -8 5 -14 11 -14 5 0 8 -4 4 -9 -3 -5 0 -15 7 -23 7 -7 14
-20 16 -28 2 -8 10 -21 19 -27 9 -7 14 -13 10 -13 -4 0 3 -17 14 -37 20 -35
21 -53 21 -254 l0 -216 52 -1 52 0 1 218 c0 163 3 223 13 235 7 8 9 15 4 15
-5 0 -4 4 2 8 6 4 32 48 59 97 27 50 56 104 66 122 10 17 15 34 12 37 -4 3 -2
6 4 6 10 0 38 49 35 63 -1 4 2 7 7 7 5 0 12 11 15 25 4 14 11 25 16 25 6 0 10
9 10 19 0 11 3 21 8 23 7 3 62 101 62 111 0 3 -25 4 -56 3 -56 -1 -56 -1 -81
-46 -44 -81 -66 -125 -65 -130 0 -3 -6 -12 -13 -20 -7 -8 -15 -22 -17 -30 -2
-8 -9 -21 -16 -28 -7 -8 -10 -17 -7 -22 3 -5 1 -10 -4 -12 -14 -5 -91 -160
-84 -171 3 -5 0 -8 -8 -5 -8 3 -36 49 -64 104 -27 54 -52 101 -55 104 -3 3
-25 43 -49 90 -24 47 -48 88 -53 91 -6 3 -9 9 -9 13 2 17 0 25 -16 43 -14 16
-31 20 -75 21 -32 0 -58 -4 -58 -9z"/>
</g>
</svg>
